<svg width="496" height="496" viewBox="0 0 496 496" fill="none" xmlns="http://www.w3.org/2000/svg">
<g clip-path="url(#clip0_4818_10615)">
<mask id="mask0_4818_10615" style="mask-type:alpha" maskUnits="userSpaceOnUse" x="0" y="0" width="496" height="496">
<rect width="496" height="496" fill="#D9D9D9"/>
</mask>
<g mask="url(#mask0_4818_10615)">
<path d="M138.482 398.866L81.6484 386.466C76.4818 385.433 72.3484 382.76 69.2484 378.447C66.1484 374.149 64.9429 369.416 65.6318 364.249L71.3151 305.866L32.5651 261.433C29.1207 257.644 27.3984 253.166 27.3984 247.999C27.3984 242.833 29.1207 238.355 32.5651 234.566L71.3151 190.133L65.6318 131.749C64.9429 126.583 66.1484 121.85 69.2484 117.551C72.3484 113.239 76.4818 110.566 81.6484 109.533L138.482 97.1326L168.448 46.4992C171.204 42.0214 174.993 39.0937 179.815 37.7159C184.637 36.3381 189.46 36.5103 194.282 38.2325L248.015 60.9659L301.748 38.2325C306.571 36.5103 311.393 36.3381 316.215 37.7159C321.037 39.0937 324.826 42.0214 327.582 46.4992L357.548 97.1326L414.382 109.533C419.548 110.566 423.682 113.239 426.782 117.551C429.882 121.85 431.087 126.583 430.398 131.749L424.715 190.133L463.465 234.566C466.909 238.355 468.632 242.833 468.632 247.999C468.632 253.166 466.909 257.644 463.465 261.433L424.715 305.866L430.398 364.249C431.087 369.416 429.882 374.149 426.782 378.447C423.682 382.76 419.548 385.433 414.382 386.466L357.548 398.866L327.582 449.499C324.826 453.977 321.037 456.905 316.215 458.283C311.393 459.66 306.571 459.488 301.748 457.766L248.015 435.033L194.282 457.766C189.46 459.488 184.637 459.66 179.815 458.283C174.993 456.905 171.204 453.977 168.448 449.499L138.482 398.866ZM211.848 306.899C215.637 310.688 220.46 312.583 226.315 312.583C232.171 312.583 236.993 310.688 240.782 306.899L328.615 219.066C332.748 214.933 334.815 210.021 334.815 204.331C334.815 198.654 332.748 193.749 328.615 189.616C324.482 185.483 319.577 183.416 313.9 183.416C308.21 183.416 303.298 185.483 299.165 189.616L226.315 262.466L196.348 233.016C192.215 229.227 187.31 227.415 181.634 227.581C175.944 227.76 171.204 229.744 167.415 233.533C163.626 237.321 161.732 242.144 161.732 247.999C161.732 253.855 163.626 258.677 167.415 262.466L211.848 306.899Z" fill="#81B12E"/>
</g>
</g>
<defs>
<clipPath id="clip0_4818_10615">
<rect width="496" height="496" fill="white"/>
</clipPath>
</defs>
</svg>
